<svg width="9523" height="7325" viewBox="0 0 9523 7325" fill="none" xmlns="http://www.w3.org/2000/svg">
<path fill-rule="evenodd" clip-rule="evenodd" d="M4274.26 94.6689C2958.54 445.911 2000.56 1403.84 1616.81 2751.92C1472.93 3257.29 1501.74 4529.77 1657 4529.77C1703.43 4529.77 1998.3 4347.24 2770.19 3840.68C2890.11 3761.99 2937.42 3691.7 2937.67 3591.84C2939.99 2684.46 3672.47 1759.87 4609.83 1481.19C4901.61 1394.46 5572.35 1421 5887.57 1531.79L6180.12 1634.6L6832.46 1208.48L7484.8 782.312L7307.64 647.195C7047.45 448.694 6413.09 168.926 6012.64 76.0659C5547.56 -31.7906 4714.44 -22.8755 4274.26 94.6689ZM8941.51 223.86C8453.4 544.904 7101.66 1422.13 6236.08 1979.55C5655.06 2353.78 4599.94 3037.04 3891.38 3498C3182.81 3958.95 2329.54 4513.02 1995.21 4729.25C1660.92 4945.48 1311.07 5172.48 1217.85 5233.75L1048.31 5345.06L904.377 5069.93L760.448 4794.85L380.554 4982.79C171.643 5086.16 0.711914 5194.79 0.711914 5224.21C0.711914 5310.79 656.405 6560.54 711.441 6578.89C757.562 6594.24 1430.36 6174.36 2989.57 5157.17C3602.75 4757.13 4154.29 4398.93 5128.14 3768.23C5877.99 3282.59 7510.16 2224.12 8633.5 1495C9130.89 1172.1 9530.98 893.827 9522.64 876.615C9475.28 779.168 9187.52 328.933 9121.87 249.523C9055.6 169.39 9029.89 165.732 8941.51 223.86ZM7910.87 2345.95C7627.44 2530.79 7364.84 2699.61 7327.27 2721.2C7271.41 2753.2 7274.91 2809.06 7346.23 3027.25C7411.89 3227.92 7427.86 3412.35 7410.6 3770.24C7380.55 4393.31 7196.33 4814.84 6766.76 5243.44C5927.35 6080.98 4660.49 6133.34 3726.89 5369.02L3510.86 5192.16L3366.16 5293.73C3286.6 5349.59 3016.52 5528.05 2765.97 5690.27L2310.48 5985.19L2534.08 6215.53C3248.51 6951.57 4136.62 7323.94 5179.68 7324.81C6485.29 7325.89 7558.39 6750.18 8276.18 5663.47C8922.13 4685.55 9045.71 3391.12 8599.65 2275.24C8540.18 2126.42 8476.79 2005.89 8458.86 2007.33C8440.88 2008.77 8194.3 2161.15 7910.87 2345.95Z" fill="white"/>
</svg>
