<?xml version="1.0" encoding="UTF-8"?>
<!-- Generator: Adobe Illustrator 26.1.0, SVG Export Plug-In . SVG Version: 6.00 Build 0)  -->
<svg xmlns="http://www.w3.org/2000/svg" xmlns:xlink="http://www.w3.org/1999/xlink" version="1.1" id="Layer_1" x="0px" y="0px" viewBox="0 0 287.6 109.2" style="enable-background:new 0 0 287.6 109.2;" xml:space="preserve">
<style type="text/css">
	.st0{fill:#FFFFFF;}
</style>
<g>
	<g>
		<g>
			<polygon class="st0" points="13.1,12.6 13.1,79.5 25.1,79.5 25.1,6.8    "></polygon>
			<path class="st0" d="M212.6,68.5c-1.3,0.9-3.2,1.5-5.7,1.8c-2.5,0.3-5.5-0.1-8.9-1.2c-1.9-0.7-3.7-1.8-5.3-3.3     c-1.4-1.3-2.7-2.9-3.8-4.9c-1.1-2-1.6-4.7-1.6-7.9c0-5.2,1.5-9.4,4.5-12.6c3-3.2,6.9-4.8,11.6-4.8c0,0,0,0,0,0     c2.2,0,4.2,0.5,6.1,1.4c1.9,1,3.4,1.9,4.4,2.8l0.4,0.4l7.9-6.7l-0.4-0.5c-2.3-2.4-5.1-4.3-8.2-5.7c-3.1-1.4-6.5-2.1-10-2.1     c0,0,0,0,0,0c-3.7,0-7.3,0.8-10.5,2.3c-3.2,1.4-6.1,3.4-8.5,5.9c-2.4,2.5-4.4,5.5-5.7,8.8c-1.4,3.3-2.1,6.9-2.1,10.8     c0,3.8,0.7,7.5,2.2,10.8c1.5,3.4,3.4,6.3,5.9,8.8c2.5,2.5,5.4,4.4,8.8,5.9c3.4,1.4,7,2.1,10.8,2.1c0,0,0,0,0,0     c3.1,0,5.9-0.5,8.6-1.4c2.6-0.8,5.1-2,7.3-3.6c0.5-0.4,1.1-0.8,1.7-1.2l0.5-0.4l-7.2-7.2L212.6,68.5z"></path>
			<path class="st0" d="M273.1,22l-9.5,2.1l0.3,6.5c-4.3-3.3-9.8-5-16.4-4.9c-3.5,0-6.7,0.7-9.8,2.1c-3.1,1.5-5.8,3.4-8,5.9     c-2.2,2.5-4,5.3-5.3,8.6c-1.3,3.3-1.9,6.7-1.9,10.4c0,3.8,0.6,7.4,1.9,10.6c1.3,3.3,3.1,6.1,5.4,8.5c2.3,2.4,4.9,4.3,7.9,5.7     c3.1,1.5,6.4,2.2,9.8,2.2c3.1,0,5.8-0.4,8-1.1c2.3-0.7,4.2-1.7,5.7-2.8c0.9-0.6,1.7-1.2,2.3-1.9l0,5l9.5,0V22z M262.7,59.7     c-0.9,2.2-2.1,4.1-3.5,5.7c-1.5,1.6-3.2,2.9-5.2,3.8c-1.9,1-3.9,1.4-6.1,1.4c-2.1,0-4.2-0.5-6.2-1.4c-1.9-0.9-3.6-2.1-5.1-3.7     c-1.5-1.6-2.6-3.5-3.5-5.7c-0.8-2.2-1.3-4.5-1.3-6.9c0-2.4,0.4-4.7,1.3-6.9c0.8-2.2,2-4.1,3.5-5.7c1.5-1.6,3.2-2.9,5.2-3.9     c1.8-0.9,3.8-1.3,6-1.3c2.2,0,4.2,0.4,6.1,1.3c2,1,3.7,2.2,5.2,3.9c1.5,1.6,2.6,3.5,3.5,5.7c0.9,2.2,1.3,4.5,1.3,6.9     C264.1,55.2,263.6,57.5,262.7,59.7z"></path>
			<path class="st0" d="M139.1,28.7c0,2.6,0,5.2,0,7.8c-0.7-2.2-2.6-3.9-4.6-5.1c-5.1-3.1-11.4-4.3-17.3-3.2c-3.6,0.7-7,2.2-10,4.4     c-3,2.2-5,5-6.8,8.3c-3,5.7-4,12.4-2.6,18.7c1.7,7.5,6.9,14.2,13.9,17.5c7,3.3,15.6,3,22.2-1c2.2-1.3,4.2-3.1,5.3-5.4     c0.5,5.7,0.8,12-2.7,16.4c-3,3.8-8.2,5.3-13.1,5.4c-6.1,0.1-12.2-1.7-17.3-5c-2.5,2.2-4.9,4.3-7.4,6.5c8.2,6,18.7,8.9,28.8,8     c6.4-0.6,12.9-2.9,17-7.8c5.2-6.2,5.4-15,5.4-23.1c0-15.2,0-30.4,0-45.6C146.3,26.7,142.7,27.7,139.1,28.7z M133.1,64.8     L133.1,64.8c-2.9,3-6.6,4.5-11.2,4.5c0,0,0,0,0,0c-4.5,0-8.3-1.4-11.2-4.3c-2.9-2.9-4.4-6.7-4.4-11.5c0-4.6,1.5-8.4,4.3-11.3     c2.9-2.9,6.7-4.4,11.3-4.4c0,0,0,0,0,0c2.1,0,4.2,0.4,6.1,1.1c1.9,0.7,3.5,1.8,4.9,3.1c1.4,1.3,2.5,3,3.3,4.9     c0.8,1.9,1.2,4.1,1.2,6.4C137.4,58,136,61.8,133.1,64.8z"></path>
			<polygon class="st0" points="158.6,28 158.7,79.3 167.9,79.3 167.9,25.7    "></polygon>
			<polygon class="st0" points="167.9,22.6 158.6,24.9 158.6,17.7 167.9,15.5    "></polygon>
			<g>
				<path class="st0" d="M82.4,46.7c0.8,2,1.3,4.3,1.3,6.6c0,9.6-7.8,17.3-17.3,17.3c-4.9,0-9.4-2.1-12.6-5.4l-8.7,5.6      c5.1,6.1,12.7,10,21.3,10c15.2,0,27.6-12.4,27.6-27.6c0-4.4-1-8.6-2.9-12.2L82.4,46.7z"></path>
				<path class="st0" d="M49,53.4C49,43.8,56.8,36,66.3,36c2.6,0,5.1,0.6,7.4,1.7l9.5-6.2c-4.7-3.6-10.5-5.8-16.9-5.8      c-15.2,0-27.6,12.4-27.6,27.6c0,2.2,0.3,4.4,0.8,6.5l9.5-6.2C49,53.6,49,53.5,49,53.4z"></path>
			</g>
			<polygon class="st0" points="32.5,75.4 27.2,65.1 32.6,62.3 34.8,66.5 95.6,27.2 98.9,32.4    "></polygon>
		</g>
	</g>
	<g>
		<g>
			<path class="st0" d="M164.8,97.4c-0.2,0.4-0.5,0.7-0.8,1c-0.3,0.3-0.7,0.5-1.1,0.6c-0.4,0.1-0.8,0.2-1.3,0.2     c-0.5,0-1-0.1-1.5-0.3s-0.9-0.5-1.2-0.8c-0.2-0.2-0.4-0.5-0.6-0.8c-0.1-0.3-0.2-0.6-0.3-0.9s-0.1-0.7-0.1-1.1c0-0.4,0-0.9,0-1.5     c0-0.6,0-1,0-1.5c0-0.4,0-0.8,0.1-1.1s0.2-0.6,0.3-0.9c0.1-0.3,0.3-0.5,0.6-0.8c0.3-0.4,0.8-0.6,1.2-0.8c0.5-0.2,0.9-0.3,1.5-0.3     c0.5,0,0.9,0.1,1.3,0.2c0.4,0.1,0.8,0.3,1.1,0.6c0.3,0.3,0.6,0.6,0.8,1s0.4,0.8,0.4,1.3h-1.1c-0.1-0.6-0.4-1.2-0.8-1.5     s-1-0.6-1.6-0.6c-0.3,0-0.7,0.1-1,0.2c-0.3,0.1-0.6,0.3-0.8,0.5c-0.2,0.2-0.3,0.3-0.4,0.5c-0.1,0.2-0.2,0.4-0.2,0.7     s-0.1,0.6-0.1,1c0,0.4,0,0.8,0,1.4c0,0.5,0,1,0,1.4c0,0.4,0,0.7,0.1,1s0.1,0.5,0.2,0.7c0.1,0.2,0.2,0.4,0.4,0.5     c0.2,0.2,0.5,0.4,0.8,0.5s0.6,0.2,1,0.2c0.7,0,1.2-0.2,1.6-0.6s0.7-0.9,0.9-1.5h1.1C165.2,96.6,165,97,164.8,97.4z"></path>
			<path class="st0" d="M172.1,97.1c-0.1,0.5-0.3,0.9-0.7,1.3c-0.3,0.3-0.5,0.5-0.9,0.6c-0.3,0.1-0.7,0.2-1.2,0.2s-0.8-0.1-1.2-0.2     c-0.3-0.1-0.6-0.3-0.9-0.6c-0.2-0.2-0.3-0.4-0.4-0.6c-0.1-0.2-0.2-0.4-0.3-0.7c-0.1-0.2-0.1-0.5-0.1-0.8c0-0.3,0-0.5,0-0.8     c0-0.3,0-0.5,0-0.8c0-0.3,0.1-0.5,0.1-0.8c0.1-0.2,0.2-0.5,0.3-0.7c0.1-0.2,0.3-0.4,0.4-0.6c0.3-0.3,0.5-0.5,0.9-0.6     c0.3-0.1,0.7-0.2,1.2-0.2s0.8,0.1,1.2,0.2c0.3,0.1,0.6,0.3,0.9,0.6c0.4,0.4,0.6,0.8,0.7,1.3c0.1,0.5,0.2,1,0.2,1.6     C172.3,96.1,172.2,96.6,172.1,97.1z M171.2,94.9c0-0.2,0-0.4-0.1-0.6c0-0.2-0.1-0.4-0.2-0.5s-0.2-0.3-0.3-0.5     c-0.3-0.4-0.8-0.5-1.3-0.5c-0.5,0-0.9,0.2-1.3,0.5c-0.1,0.1-0.2,0.3-0.3,0.5c-0.1,0.2-0.1,0.4-0.2,0.5c0,0.2-0.1,0.4-0.1,0.6     s0,0.4,0,0.6c0,0.2,0,0.4,0,0.6s0,0.4,0.1,0.6c0,0.2,0.1,0.4,0.2,0.6c0.1,0.2,0.2,0.3,0.3,0.5c0.3,0.4,0.8,0.5,1.3,0.5     c0.5,0,1-0.2,1.3-0.5c0.1-0.1,0.2-0.3,0.3-0.5c0.1-0.2,0.1-0.4,0.2-0.6s0.1-0.4,0.1-0.6s0-0.4,0-0.6     C171.2,95.3,171.2,95.1,171.2,94.9z"></path>
			<path class="st0" d="M183,99.1v-4.4c0-0.6-0.2-1.1-0.5-1.4c-0.3-0.3-0.7-0.5-1.3-0.5c-0.5,0-1,0.2-1.3,0.5     c-0.3,0.3-0.5,0.8-0.5,1.3v4.5h-1.1v-4.4c0-0.6-0.2-1.1-0.5-1.4c-0.3-0.3-0.7-0.5-1.3-0.5c-0.5,0-1,0.2-1.3,0.5s-0.5,0.8-0.5,1.4     v4.4h-1.1v-7.2h1.1v0.8c0.3-0.3,0.6-0.5,0.9-0.7c0.3-0.1,0.7-0.2,1.1-0.2c0.5,0,0.9,0.1,1.3,0.3c0.4,0.2,0.7,0.5,0.9,0.9     c0.6-0.8,1.4-1.2,2.4-1.2c0.4,0,0.7,0.1,1,0.2s0.6,0.3,0.8,0.5c0.5,0.5,0.8,1.2,0.8,2v4.6H183z"></path>
			<path class="st0" d="M191.6,96.4c0,0.3-0.1,0.6-0.1,0.8c-0.1,0.3-0.2,0.5-0.3,0.8c-0.1,0.2-0.3,0.4-0.4,0.6     c-0.2,0.2-0.4,0.3-0.7,0.5c-0.3,0.1-0.6,0.2-1,0.2c-0.4,0-0.8-0.1-1.1-0.2c-0.3-0.1-0.6-0.4-0.9-0.7v4.1h-1.1V91.9h1.1v0.8     c0.3-0.4,0.6-0.6,0.9-0.8c0.3-0.1,0.7-0.2,1.1-0.2c0.4,0,0.7,0.1,1,0.2c0.3,0.1,0.5,0.3,0.7,0.5c0.2,0.2,0.3,0.4,0.4,0.6     c0.1,0.2,0.2,0.5,0.3,0.8c0.1,0.3,0.1,0.5,0.1,0.8s0,0.6,0,0.8C191.6,95.8,191.6,96.1,191.6,96.4z M190.5,94.5     c0-0.3-0.1-0.6-0.2-0.9c-0.1-0.3-0.3-0.5-0.5-0.6c-0.2-0.2-0.6-0.2-0.9-0.2c-0.4,0-0.7,0.1-0.9,0.2c-0.2,0.2-0.4,0.4-0.5,0.6     c-0.1,0.3-0.2,0.5-0.3,0.9c0,0.3-0.1,0.7-0.1,1s0,0.7,0.1,1c0,0.3,0.1,0.6,0.3,0.9c0.1,0.3,0.3,0.5,0.5,0.6     c0.2,0.2,0.6,0.2,0.9,0.2c0.4,0,0.7-0.1,0.9-0.2c0.2-0.2,0.4-0.4,0.5-0.6c0.1-0.3,0.2-0.5,0.2-0.9c0-0.3,0.1-0.7,0.1-1     S190.5,94.8,190.5,94.5z"></path>
			<path class="st0" d="M194.9,99.1c-0.6,0-1.1-0.2-1.4-0.5c-0.3-0.4-0.4-0.8-0.4-1.4v-8.5h1.1v8.4c0,0.4,0.1,0.6,0.2,0.8     c0.1,0.2,0.4,0.3,0.8,0.3h0.6v0.9H194.9z"></path>
			<path class="st0" d="M197.4,95.8c0,0.8,0.2,1.4,0.5,1.8s0.9,0.6,1.6,0.6c0.4,0,0.8-0.1,1-0.2s0.6-0.3,0.8-0.6l0.7,0.6     c-0.2,0.2-0.4,0.3-0.5,0.5c-0.2,0.1-0.4,0.3-0.6,0.3s-0.4,0.2-0.7,0.2c-0.2,0-0.5,0.1-0.8,0.1c-0.5,0-0.9-0.1-1.3-0.2     c-0.4-0.1-0.7-0.4-1-0.7c-0.3-0.3-0.5-0.7-0.6-1.1c-0.2-0.5-0.2-1-0.2-1.6c0-1.2,0.3-2.1,0.8-2.7c0.5-0.6,1.2-1,2.2-1     c0.9,0,1.7,0.3,2.2,0.9c0.5,0.6,0.8,1.5,0.8,2.5v0.5H197.4z M201.1,94.6c0-0.1,0-0.2,0-0.3c0-0.1,0-0.2-0.1-0.3s-0.1-0.2-0.1-0.3     c-0.1-0.3-0.4-0.6-0.7-0.8c-0.3-0.2-0.6-0.3-1-0.3s-0.7,0.1-1,0.3c-0.3,0.2-0.5,0.5-0.7,0.8c-0.1,0.2-0.1,0.4-0.2,0.5     c0,0.2,0,0.4-0.1,0.7h3.8C201.2,94.9,201.1,94.7,201.1,94.6z"></path>
			<path class="st0" d="M207.6,99.1l-1.7-2.8l-1.8,2.8h-1.3l2.4-3.7l-2.3-3.5h1.3l1.6,2.7l1.6-2.7h1.3l-2.3,3.5l2.4,3.7H207.6z"></path>
			<path class="st0" d="M222.1,99.1v-4.4c0-0.6-0.2-1.1-0.5-1.4c-0.3-0.3-0.7-0.5-1.3-0.5c-0.5,0-1,0.2-1.3,0.5     c-0.3,0.3-0.5,0.8-0.5,1.3v4.5h-1.1v-4.4c0-0.6-0.2-1.1-0.5-1.4c-0.3-0.3-0.7-0.5-1.3-0.5c-0.5,0-1,0.2-1.3,0.5s-0.5,0.8-0.5,1.4     v4.4h-1.1v-7.2h1.1v0.8c0.3-0.3,0.6-0.5,0.9-0.7c0.3-0.1,0.7-0.2,1.1-0.2c0.5,0,0.9,0.1,1.3,0.3c0.4,0.2,0.7,0.5,0.9,0.9     c0.6-0.8,1.4-1.2,2.4-1.2c0.4,0,0.7,0.1,1,0.2s0.6,0.3,0.8,0.5c0.5,0.5,0.8,1.2,0.8,2v4.6H222.1z"></path>
			<path class="st0" d="M229,99.1v-0.7c-0.3,0.3-0.6,0.5-0.9,0.6c-0.3,0.1-0.7,0.2-1.2,0.2c-0.5,0-0.9-0.1-1.2-0.2     c-0.3-0.1-0.6-0.3-0.8-0.5c-0.2-0.2-0.3-0.4-0.4-0.6c-0.1-0.3-0.1-0.5-0.1-0.8c0-0.6,0.2-1.1,0.6-1.5c0.4-0.4,1-0.6,1.8-0.6h2.2     v-0.7c0-0.5-0.1-0.9-0.4-1.2s-0.8-0.4-1.4-0.4c-0.5,0-0.8,0.1-1.1,0.2s-0.5,0.3-0.7,0.6l-0.7-0.7c0.3-0.4,0.7-0.7,1.1-0.8     c0.4-0.1,0.9-0.2,1.5-0.2c1,0,1.7,0.2,2.2,0.6c0.5,0.4,0.7,1,0.7,1.8v4.9H229z M229,95.8h-2c-1.1,0-1.6,0.4-1.6,1.3     c0,0.4,0.1,0.7,0.4,0.9c0.3,0.2,0.7,0.3,1.3,0.3c0.3,0,0.6,0,0.9-0.1s0.5-0.2,0.7-0.4c0.2-0.2,0.4-0.6,0.4-1.2V95.8z"></path>
			<path class="st0" d="M236.2,99.1v-0.9c-0.3,0.4-0.6,0.6-0.9,0.8c-0.3,0.1-0.7,0.2-1.1,0.2c-0.4,0-0.7-0.1-1-0.2     c-0.3-0.1-0.5-0.3-0.7-0.5c-0.2-0.2-0.3-0.4-0.4-0.6s-0.2-0.5-0.3-0.8s-0.1-0.5-0.1-0.8c0-0.3,0-0.6,0-0.8c0-0.3,0-0.6,0-0.8     s0.1-0.6,0.1-0.8c0.1-0.3,0.2-0.5,0.3-0.8c0.1-0.2,0.3-0.4,0.4-0.6c0.2-0.2,0.4-0.3,0.7-0.5c0.3-0.1,0.6-0.2,1-0.2     c0.4,0,0.8,0.1,1.1,0.2s0.6,0.4,0.9,0.7l0-4h1.1v10.4H236.2z M236.1,94.5c0-0.3-0.1-0.6-0.2-0.9c-0.1-0.3-0.3-0.5-0.5-0.6     c-0.2-0.2-0.5-0.2-0.9-0.2c-0.4,0-0.7,0.1-0.9,0.2c-0.2,0.2-0.4,0.4-0.5,0.6c-0.1,0.3-0.2,0.5-0.3,0.9c0,0.3-0.1,0.7-0.1,1     s0,0.7,0.1,1c0,0.3,0.1,0.6,0.3,0.9c0.1,0.3,0.3,0.5,0.5,0.6c0.2,0.2,0.5,0.2,0.9,0.2c0.4,0,0.7-0.1,0.9-0.2     c0.2-0.2,0.4-0.4,0.5-0.6c0.1-0.3,0.2-0.5,0.2-0.9c0-0.3,0.1-0.7,0.1-1S236.1,94.8,236.1,94.5z"></path>
			<path class="st0" d="M239.8,95.8c0,0.8,0.2,1.4,0.5,1.8s0.9,0.6,1.6,0.6c0.4,0,0.8-0.1,1-0.2s0.6-0.3,0.8-0.6l0.7,0.6     c-0.2,0.2-0.4,0.3-0.5,0.5c-0.2,0.1-0.4,0.3-0.6,0.3c-0.2,0.1-0.4,0.2-0.7,0.2c-0.2,0-0.5,0.1-0.8,0.1c-0.5,0-0.9-0.1-1.3-0.2     s-0.7-0.4-1-0.7c-0.3-0.3-0.5-0.7-0.6-1.1s-0.2-1-0.2-1.6c0-1.2,0.3-2.1,0.8-2.7c0.5-0.6,1.2-1,2.2-1c0.9,0,1.7,0.3,2.2,0.9     c0.5,0.6,0.8,1.5,0.8,2.5v0.5H239.8z M243.5,94.6c0-0.1,0-0.2,0-0.3c0-0.1,0-0.2-0.1-0.3c0-0.1-0.1-0.2-0.1-0.3     c-0.1-0.3-0.4-0.6-0.7-0.8c-0.3-0.2-0.6-0.3-1-0.3s-0.7,0.1-1,0.3c-0.3,0.2-0.5,0.5-0.7,0.8c-0.1,0.2-0.1,0.4-0.2,0.5     c0,0.2,0,0.4-0.1,0.7h3.8C243.6,94.9,243.5,94.7,243.5,94.6z"></path>
			<path class="st0" d="M249.7,95.8c0,0.8,0.2,1.4,0.5,1.8s0.9,0.6,1.6,0.6c0.4,0,0.8-0.1,1-0.2s0.6-0.3,0.8-0.6l0.7,0.6     c-0.2,0.2-0.4,0.3-0.5,0.5c-0.2,0.1-0.4,0.3-0.6,0.3c-0.2,0.1-0.4,0.2-0.7,0.2c-0.2,0-0.5,0.1-0.8,0.1c-0.5,0-0.9-0.1-1.3-0.2     c-0.4-0.1-0.7-0.4-1-0.7c-0.3-0.3-0.5-0.7-0.6-1.1c-0.2-0.5-0.2-1-0.2-1.6c0-1.2,0.3-2.1,0.8-2.7s1.2-1,2.2-1     c0.9,0,1.7,0.3,2.2,0.9c0.5,0.6,0.8,1.5,0.8,2.5v0.5H249.7z M253.4,94.6c0-0.1,0-0.2,0-0.3c0-0.1,0-0.2-0.1-0.3     c0-0.1-0.1-0.2-0.1-0.3c-0.1-0.3-0.4-0.6-0.7-0.8c-0.3-0.2-0.6-0.3-1-0.3s-0.7,0.1-1,0.3c-0.3,0.2-0.5,0.5-0.7,0.8     c-0.1,0.2-0.1,0.4-0.2,0.5c0,0.2,0,0.4-0.1,0.7h3.8C253.5,94.9,253.4,94.7,253.4,94.6z"></path>
			<path class="st0" d="M260.1,99.1v-0.7c-0.3,0.3-0.6,0.5-0.9,0.6c-0.3,0.1-0.7,0.2-1.2,0.2c-0.5,0-0.9-0.1-1.2-0.2     c-0.3-0.1-0.6-0.3-0.8-0.5c-0.2-0.2-0.3-0.4-0.4-0.6s-0.1-0.5-0.1-0.8c0-0.6,0.2-1.1,0.6-1.5c0.4-0.4,1-0.6,1.8-0.6h2.2v-0.7     c0-0.5-0.1-0.9-0.4-1.2c-0.3-0.3-0.8-0.4-1.4-0.4c-0.5,0-0.8,0.1-1.1,0.2c-0.3,0.1-0.5,0.3-0.7,0.6l-0.7-0.7     c0.3-0.4,0.7-0.7,1.1-0.8c0.4-0.1,0.9-0.2,1.5-0.2c1,0,1.7,0.2,2.2,0.6c0.5,0.4,0.7,1,0.7,1.8v4.9H260.1z M260.1,95.8h-2     c-1.1,0-1.6,0.4-1.6,1.3c0,0.4,0.1,0.7,0.4,0.9c0.3,0.2,0.7,0.3,1.3,0.3c0.3,0,0.6,0,0.9-0.1s0.5-0.2,0.7-0.4     c0.2-0.2,0.4-0.6,0.4-1.2V95.8z"></path>
			<path class="st0" d="M267.9,97.9c-0.1,0.3-0.3,0.5-0.6,0.7c-0.3,0.2-0.6,0.3-0.9,0.4c-0.4,0.1-0.8,0.1-1.2,0.1     c-0.6,0-1.2-0.1-1.6-0.2c-0.5-0.2-0.9-0.4-1.3-0.8l0.7-0.7c0.3,0.3,0.6,0.5,1,0.6s0.8,0.2,1.2,0.2c0.6,0,1.1-0.1,1.4-0.3     s0.5-0.5,0.5-1c0-0.3-0.1-0.6-0.3-0.7c-0.2-0.2-0.5-0.3-0.9-0.3l-1.2-0.1c-0.7-0.1-1.2-0.2-1.6-0.6c-0.4-0.3-0.5-0.8-0.5-1.4     c0-0.3,0.1-0.6,0.2-0.9s0.3-0.5,0.5-0.7c0.2-0.2,0.5-0.3,0.8-0.4c0.3-0.1,0.7-0.1,1.1-0.1c0.5,0,1,0.1,1.4,0.2     c0.4,0.1,0.8,0.3,1.1,0.6l-0.7,0.7c-0.3-0.2-0.5-0.3-0.9-0.4c-0.3-0.1-0.7-0.1-1-0.1c-0.5,0-0.9,0.1-1.2,0.3s-0.4,0.5-0.4,0.9     c0,0.3,0.1,0.6,0.3,0.7c0.2,0.2,0.5,0.3,1,0.3l1.2,0.1c0.3,0,0.6,0.1,0.9,0.2c0.3,0.1,0.5,0.2,0.7,0.4c0.2,0.2,0.3,0.4,0.4,0.6     c0.1,0.2,0.2,0.5,0.2,0.8C268.1,97.4,268.1,97.7,267.9,97.9z"></path>
			<path class="st0" d="M271.2,100.9c-0.1,0.4-0.3,0.7-0.5,0.8c-0.2,0.2-0.4,0.3-0.7,0.4s-0.5,0.1-0.7,0.1h-0.5v-0.9h0.3     c0.4,0,0.6-0.1,0.8-0.2c0.2-0.1,0.3-0.4,0.4-0.7l0.5-1.4l-2.6-7h1.1l2,5.8l2-5.8h1.1L271.2,100.9z"></path>
		</g>
	</g>
</g>
</svg>
